<svg xmlns="http://www.w3.org/2000/svg" width="277.56" height="90" viewBox="0 0 277.56 90">
  <path id="Caminho_1" data-name="Caminho 1" d="M66.36-18.84A30.011,30.011,0,0,1,47.16-12a29.858,29.858,0,0,1-30-30,29.757,29.757,0,0,1,30-29.88A28.743,28.743,0,0,1,66-65.4l5.28-11.04A41.167,41.167,0,0,0,47.16-84a42.123,42.123,0,0,0-42,42,42.123,42.123,0,0,0,42,42A41.256,41.256,0,0,0,71.28-7.68ZM111.6-59.88C95.52-59.88,82.44-46.56,82.44-30,82.44-13.32,95.52-.12,111.6-.12c15.96,0,29.04-13.2,29.04-29.88C140.64-46.56,127.56-59.88,111.6-59.88Zm0,48.84A18.772,18.772,0,0,1,93-30a18.772,18.772,0,0,1,18.6-18.96A18.749,18.749,0,0,1,130.08-30,18.749,18.749,0,0,1,111.6-11.04ZM161.16-84h-11.4V0h46.68V-11.4H161.16Zm54.96,24h-10.8V-.12h10.8ZM204.96-77.52a5.633,5.633,0,0,0,5.64,5.64,5.712,5.712,0,0,0,5.64-5.64,5.794,5.794,0,0,0-5.64-5.64A5.712,5.712,0,0,0,204.96-77.52ZM224.04-90V-.12h10.8V-6.96A28.716,28.716,0,0,0,253.32-.12c16.32,0,29.4-13.44,29.4-30.24s-13.08-30.12-29.4-30.12a28.716,28.716,0,0,0-18.48,6.84V-90Zm10.8,57.36c1.32-9.48,9-16.8,18.48-16.8a18.978,18.978,0,0,1,18.72,19.08,19.005,19.005,0,0,1-18.72,19.2c-9.48,0-17.16-7.32-18.48-16.8Z" transform="translate(-5.16 90)"/>
</svg>
