<svg xmlns="http://www.w3.org/2000/svg" width="367.805" height="367.805" viewBox="0 0 367.805 367.805">
  <g id="teste" transform="translate(0 0)">
    <path id="Caminho_2" data-name="Caminho 2" d="M183.9,0A183.9,183.9,0,1,1,0,183.9H0A183.379,183.379,0,0,1,182.856,0Q183.38,0,183.9,0Z" fill="#ff2a2a"/>
    <g id="_31226" data-name="31226" transform="translate(88.383 1368.235)">
      <path id="Caminho_1" data-name="Caminho 1" d="M34.557-1279.635c-1.816.491-1.563.253-17.629,16.273-8.412,8.412-15.5,15.574-15.738,15.931a6.835,6.835,0,0,0-.342,7.013c.238.417,10.452,10.75,27.947,28.244l27.559,27.589-27.634,27.649c-22.5,22.512-27.693,27.8-27.961,28.378A8.746,8.746,0,0,0,0-1125.549a8.756,8.756,0,0,0,.849,3.261c.581,1.1,31.043,31.565,32.145,32.145a6.857,6.857,0,0,0,6.358.089c.432-.208,9.1-8.784,28.274-27.947l27.664-27.649,27.574,27.56c17.509,17.494,27.842,27.708,28.259,27.947a6.65,6.65,0,0,0,7.251-.566c.476-.342,7.638-7.429,15.916-15.723,11.39-11.435,15.142-15.276,15.44-15.857a6.767,6.767,0,0,0,0-6.462c-.238-.417-10.556-10.854-27.947-28.259l-27.559-27.574,27.559-27.589c17.39-17.39,27.708-27.827,27.947-28.244a6.767,6.767,0,0,0,0-6.462c-.3-.581-4.05-4.422-15.44-15.857-8.278-8.293-15.44-15.38-15.916-15.723a6.651,6.651,0,0,0-7.251-.566c-.417.238-10.75,10.452-28.259,27.947l-27.574,27.56-27.664-27.649c-19.177-19.162-27.842-27.738-28.274-27.947A6.9,6.9,0,0,0,34.557-1279.635Z" fill="#d4e1f4"/>
    </g>
  </g>
</svg>
