<svg xmlns="http://www.w3.org/2000/svg" viewBox="0 0 20 20">
  <defs>
    <style>
      .cls-1 {
        fill: #fff;
      }
    </style>
  </defs>
  <g id="share-messenger" transform="translate(-239 -288.288)">
    <path id="Subtraction_1" data-name="Subtraction 1" class="cls-1" d="M-2229.274-515h0v-3.531a9.727,9.727,0,0,1-1.541-1.433,9.21,9.21,0,0,1-1.174-1.716,8.768,8.768,0,0,1-.749-1.944,8.648,8.648,0,0,1-.262-2.117,8.664,8.664,0,0,1,.2-1.866,8.727,8.727,0,0,1,.583-1.738,9.068,9.068,0,0,1,.922-1.573,9.528,9.528,0,0,1,1.221-1.37,9.952,9.952,0,0,1,1.48-1.131,10.281,10.281,0,0,1,1.7-.854,10.543,10.543,0,0,1,1.877-.539A10.846,10.846,0,0,1-2223-535a10.848,10.848,0,0,1,2.015.188,10.537,10.537,0,0,1,1.877.539,10.269,10.269,0,0,1,1.7.854,9.94,9.94,0,0,1,1.48,1.131,9.51,9.51,0,0,1,1.221,1.37,9.066,9.066,0,0,1,.922,1.573,8.743,8.743,0,0,1,.583,1.738,8.668,8.668,0,0,1,.2,1.866,8.664,8.664,0,0,1-.2,1.866,8.741,8.741,0,0,1-.583,1.738,9.067,9.067,0,0,1-.922,1.573,9.518,9.518,0,0,1-1.221,1.37,9.939,9.939,0,0,1-1.48,1.13,10.274,10.274,0,0,1-1.7.854,10.548,10.548,0,0,1-1.877.539,10.86,10.86,0,0,1-2.015.188,10.767,10.767,0,0,1-2.869-.387l-3.4,1.869Zm4.721-10.247,2.546,2.716,5.466-5.8-4.907,2.716-2.609-2.716-5.465,5.8,4.969-2.716Z" transform="translate(2472 823.288)"></path>
  </g>
</svg>