<?xml version="1.0" standalone="no"?>
<!DOCTYPE svg PUBLIC "-//W3C//DTD SVG 20010904//EN"
 "http://www.w3.org/TR/2001/REC-SVG-20010904/DTD/svg10.dtd">
<svg version="1.0" xmlns="http://www.w3.org/2000/svg"
 width="222.000000pt" height="227.000000pt" viewBox="0 0 222.000000 227.000000"
 preserveAspectRatio="xMidYMid meet">

<g transform="translate(0.000000,227.000000) scale(0.100000,-0.100000)"
fill="#000000" stroke="none">
<path d="M1035 1939 c-210 -30 -331 -198 -323 -444 3 -88 2 -95 -17 -97 -26
-4 -33 -48 -22 -153 10 -97 25 -131 55 -128 18 2 22 -2 22 -25 0 -15 12 -58
25 -97 29 -81 31 -121 10 -145 -9 -10 -19 -35 -22 -56 -3 -22 -11 -45 -17 -53
-6 -8 -125 -69 -265 -137 l-253 -124 42 -49 c267 -320 730 -460 1138 -346 191
54 401 186 530 332 l55 63 -265 129 -265 128 -5 47 c-3 26 -13 55 -22 65 -22
24 -20 63 9 154 14 43 25 87 25 97 0 14 6 19 22 17 32 -3 48 38 55 142 7 103
0 141 -25 141 -15 0 -17 13 -17 118 -1 135 -19 198 -80 282 -80 109 -229 162
-390 139z"/>
</g>
</svg>
