<svg xmlns="http://www.w3.org/2000/svg" width="747" height="571" viewBox="0 0 747 571">
  <g id="Grupo_1" data-name="Grupo 1" transform="translate(-76 -131)">
    <g id="svgg" transform="translate(259.078 131)">
      <path id="path0" d="M173.433,1.639c.557.9-1.6,1.732-4.789,1.845-7.465.263-13.839,1.666-17.252,3.8-4.124,2.574-26.3,8.024-29.471,7.242-1.537-.38-2.113-.3-1.279.185,4.746,2.741-1.805,7.151-10.622,7.151-5.353,0-9.22.827-8.595,1.838s-1.777,3.991-5.336,6.623-6.5,5.985-6.54,7.451-2.358,7.34-5.157,13.052c-4.308,8.79-4.65,10.971-2.227,14.207,2.6,3.477,2.751,3.378,1.625-1.091-1.332-5.289,4.266-15.851,8.4-15.851,1.5,0,1.158,1.5-.884,3.826-4.807,5.474-7.476,14.778-3.564,12.422,2.434-1.466,2.469-1.172.193,1.639C86.412,67.858,82.705,69.4,79.7,69.4c-4.3,0-4.951-.619-3.05-2.91,1.328-1.6,1.821-3.87,1.1-5.043-2.06-3.334,8.453-25.115,15.426-31.962,5.763-5.658,5.83-5.893.817-2.843-8.6,5.229-17.68,19.73-19.026,30.374-.671,5.308-2.758,11.415-4.636,13.571-3.15,3.614-3.085,3.8.834,2.4,3.188-1.138,2.545.339-2.578,5.916C64.829,82.994,61.11,89.29,60.32,92.9c-1.126,5.142-.906,5.85,1.022,3.279,2.069-2.759,2.253-2.644,1.159.725a29.731,29.731,0,0,0-1.3,5.047c0,.574-.983.435-2.186-.308s-2.239-.063-2.305,1.511-.373,6.985-.683,12.026.083,8.766.874,8.277,1.345,7.354,1.23,17.428.283,18.283.884,18.241c5.572-.392,6.171,1.132,4.979,12.677-.915,8.867-.472,12.726,1.61,14.013,1.679,1.037,2.951,6.142,3.06,12.283l.187,10.508,9.29,1.838c10.936,2.164,12.769,10.491,4.918,22.346-6.15,9.287-5.472,13.169,3.516,20.125,16.158,12.5,70.905,56.933,89.65,72.753,10.671,9.006,21.746,18.35,24.611,20.765s6.554,5.689,8.2,7.278,2.988,2.174,2.988,1.3,2.119.286,4.71,2.576l4.71,4.164-3.871-6.015c-2.129-3.308-3.394-7.841-2.81-10.072a11.194,11.194,0,0,0-.618-7.1,4.955,4.955,0,0,1,1.379-5.861c2.559-2.359,3.057-1.876,3.057,2.966,0,4.153.893,5.442,3.168,4.569,2.224-.854,2.764-.165,1.814,2.31q-1.352,3.523,1.2,1.946c1.407-.869,2.557-.539,2.557.734,0,3.123-5.062,2.935-8.306-.308-2.04-2.04-2.615-1.919-2.589.546.034,3.208,4.243,11.116,4.3,8.088.06-2.985,7.614,6.159,11.853,14.349,2.293,4.43,4.929,8.055,5.859,8.055s2,2.089,2.388,4.642c.495,3.289,3.883,5.871,11.627,8.859,6.011,2.319,12.275,5.886,13.921,7.926,2.647,3.283,2.82,2.974,1.5-2.683-1.274-5.467-1.024-6.005,1.731-3.719,2.541,2.109,3.573,2.105,4.886-.019,1.2-1.94,2.161-1.51,3.438,1.533,1.717,4.093,1.761,4.089,1.39-.145a28.911,28.911,0,0,1,1.4-9.668l1.779-5.3,2.934,5.3c2.844,5.135,2.936,5.152,3.011.56.043-2.6,1.117-5.082,2.388-5.506s1.633-2.537.789-4.737c-1.008-2.626-2.04-3.128-3.055-1.486-1.136,1.838-3.04,1.8-7.346-.167-6.243-2.845-7.93-8.5-2.534-8.5,3.933,0,4.467-4.342.546-4.442-1.671-.042-1.25-1.2,1.085-2.967,5.575-4.232,7.047-14.863,3.112-22.473-2.167-4.192-2.635-7.543-1.339-9.592,1.489-2.353,2-1.661,2.027,2.733.047,8.355,3.394,9.387,4.015,1.238.637-8.359-4.05-12.027-7.391-5.784-2.122,3.964-2.663,4.068-5.211,1-2.384-2.872-2.27-3.426.7-3.426,1.951,0,3.546-1.042,3.546-2.315s-.983-1.707-2.185-.964-2.186.414-2.186-.73,1.4-2.618,3.109-3.274c2.733-1.049,3.137-7.427,1.339-21.133-.079-.6-1.09.383-2.246,2.186a9.081,9.081,0,0,0-1.107,6.558c.547,1.8-.375,7.213-2.051,12.021-2.614,7.505-2.607,9.232.048,12.194,4.3,4.793,3.868,6.179-1.478,4.781-3.838-1-4.443-2.551-3.768-9.632.554-5.8-.065-8.435-1.985-8.435-1.535,0-2.79-1.534-2.79-3.408,0-2.025-1.027-2.773-2.53-1.844-1.734,1.071-2.142.08-1.3-3.15.678-2.592.23-4.713-1-4.713s-1.812,2.849-1.3,6.331c1.2,8.168-2.82,6.828-7.812-2.606-2.039-3.852-3.168-5.173-2.51-2.935.906,3.082.336,3.738-2.351,2.707-2.545-.977-3.189-.428-2.279,1.942.7,1.817.257,3.3-.979,3.3s-1.642.977-.9,2.171c.776,1.256-.986,1.979-4.179,1.714-4.068-.336-5.438-1.627-5.206-4.9a28.3,28.3,0,0,0-1.206-9.056c-2.214-6.712,3.752-11.3,8.509-6.537,4.17,4.17,6.9,4.693,3.571.684-1.785-2.15-1.077-2.916,3.008-3.254a8.538,8.538,0,0,1,8.057,3.9c1.493,2.391,3.582,4.347,4.642,4.347s.739-1.432-.714-3.183-1.913-4.362-1.023-5.8c1.1-1.777.688-2.044-1.276-.83-2.129,1.316-2.508.78-1.431-2.027a26.407,26.407,0,0,0,1.465-4.662c0-.465,1.366-.321,3.037.32,1.852.711,2.6,3.03,1.912,5.943-1.076,4.572-.988,4.6,2.054.675,4.058-5.237,13.231-1.446,11.33,4.681-.918,2.958-.583,2.856,1.523-.463,2.064-3.253,2.089-4.459.1-5.121-2.933-.977-1.177-15.016,2.45-19.586,1.193-1.5,1.625-2.732.961-2.732-1.112,0,.142-5.306,3.874-16.393,1.084-3.218.655-3.006-1.625.8-2.585,4.318-3.321,4.593-4.445,1.663-1.495-3.895-11.786-1.4-15.161,3.681-1.261,1.9-2.509,1.574-4.633-1.195-1.6-2.085-3.6-3.1-4.445-2.253s-.919-.076-.162-2.051c.852-2.219-.554-5.521-3.684-8.651-5.952-5.952-8.479-1.424-3.939,7.059,2,3.735,1.96,4.39-.179,3.068-2-1.232-2.425-.136-1.614,4.108.609,3.184.259,5.789-.776,5.789s-1.883,1.394-1.883,3.1a4.327,4.327,0,0,1-2.56,3.95c-1.408.469-2.72,3.014-2.914,5.655-.341,4.622-.183,4.66,4.2,1.026,2.505-2.076,3.324-2.375,1.822-.664s-2.733,5.562-2.733,8.556c0,5.041-.213,5.153-2.88,1.507-5.833-7.977-13.172,5.016-7.743,13.709,1.876,3,1.85,5.022-.1,8.167-2.432,3.914-2.514,3.875-1.295-.6,2.439-8.963-2.862-13.578-14.514-12.637-8.89.718-10.587.206-11.781-3.555-1.132-3.568-1.994-3.9-4.582-1.749-2.211,1.836-2.49,3.344-.909,4.924,3.725,3.726,2.991,8.792-.771,5.316-1.677-1.55-2.6-3.556-2.057-4.458s-.541-1.639-2.415-1.639-3.423,1.229-3.441,2.732c-.023,1.847-.694,1.688-2.071-.489-2.251-3.56,1.357-7.121,5.279-5.211,1.259.613.056-.856-2.675-3.265-2.954-2.606-4.054-4.943-2.717-5.77,1.237-.764,2.836.143,3.555,2.015s2.187,2.861,3.263,2.2,1.957-.015,1.957,1.444c0,1.729,1.392,1.394,4-.964,2.2-1.99,4.788-3.617,5.755-3.617s3.663-2.2,5.992-4.883c4.694-5.413-.437-12.6-8.992-12.6a10.229,10.229,0,0,1-6.281-2.589c-4.457-4.456-12.181-4.083-8.13.394,1.808,2,3.287,4.481,3.287,5.517s-1.4-.024-3.1-2.357-4.166-4.366-5.465-4.517-3.947-.4-5.884-.546c-2.836-.22-3.234-1.8-2.046-8.139,1-5.328.725-7.4-.85-6.428-1.414.874-2.432-.97-2.6-4.7-.189-4.248-.777-3.109-1.909,3.7-.9,5.41-1.116,10.726-.481,11.813s.015,1.274-1.376.414c-3.352-2.072-2.16,5.887,1.551,10.358,2.3,2.773,2.029,3.737-1.6,5.678-6.522,3.491-6.832,3.125-5.864-6.918.49-5.091-.069-10.413-1.242-11.827-1.4-1.686-1.345-3.059.158-3.988,1.273-.787,2.307.342,2.325,2.538.029,3.352.356,3.455,2.153.675,3.044-4.71,2.708-9.3-.547-7.458-2.186,1.234-2.186.954,0-1.4,3.478-3.747,3.479-8.012,0-11.733-2.247-2.406-3.911-1.556-9.412,4.809-5.3,6.136-7.465,7.294-10.468,5.613-3.524-1.971-3.477-2.4.669-6.148,5.99-5.422,5.672-8.613-.464-4.647-12.12,7.833-43.169-23.011-43.169-42.885,0-11.489,14.7-24.547,24.59-21.844.9.247,1.639-2.131,1.639-5.284,0-5.109.4-5.406,3.7-2.732,2.107,1.709,3.033,1.889,2.151.419a2.885,2.885,0,0,1,.673-3.954c1.222-.756,2.221-.148,2.221,1.35s2.705.225,6.011-2.829,7.8-6.182,9.975-6.951,3.351-2.388,2.6-3.6.093-2.2,1.869-2.2a21.171,21.171,0,0,0,6.322-1.187c1.843-.707,3.093.176,3.093,2.186,0,1.855-.707,3.373-1.57,3.373s-3.3,2.641-5.416,5.869c-3.35,5.113-2.537,4.8,6.306-2.449,10.738-8.8,12.2-10.628,6.873-8.583-1.8.692-3.279.17-3.279-1.161a2.319,2.319,0,0,1,2.186-2.42c1.2,0,2.186-1.341,2.186-2.981,0-2.206-2.655-1.637-10.207,2.186-12.559,6.358-15.976,6.552-14.477.82.626-2.391,1.92-3.863,2.877-3.272,2.864,1.77,8.492-1.289,7.436-4.04-.539-1.4,4.518-6.942,11.238-12.3s13.267-11.755,14.549-14.2c5.206-9.948,16.039-21.584,22.679-24.358,5.462-2.282,6.791-3.943,5.9-7.369-1.193-4.559-.581-4.86,10.947-5.383,6.116-.277,7.246,9.407,1.346,11.53a1.72,1.72,0,0,0-.858,2.644c.65,1.05.249,3.671-.891,5.824s-4.234,10.307-6.877,18.121c-5.1,15.066-9.862,24.071-20.246,38.252l-6.4,8.743,6.659-6.985c5.516-5.786,6.826-6.348,7.635-3.278.7,2.644,1.049,2.3,1.23-1.212.14-2.705,1.237-4.918,2.439-4.918s2.186-2,2.186-4.434c0-5.367,13.369-34.051,19.508-41.855,4.012-5.1,5.254-5.443,13.762-3.8,12.21,2.361,13.116,2.364,11.681.042-.666-1.076.311-2.54,2.17-3.253,2.083-.8,2.823-.4,1.928,1.052-.937,1.515.7,2.089,4.613,1.614,3.485-.422,6.457.428,6.985,2,.506,1.5-.638,2.732-2.541,2.732s-3.461,1-3.461,2.227c0,3.711,11.446-.323,17.421-6.14,3.042-2.961,4.368-4.751,2.949-3.978a2.99,2.99,0,0,1-3.954-.817c-.756-1.221-.35-2.221.9-2.221,4.8,0,4.976-10.839.328-20.44C273.43,40.431,262.122,29.513,246.3,21.4c-13.737-7.045-14.553-7.338-22.258-7.984-3.327-.279-3.663-.815-1.407-2.245,3.509-2.223-11.865-6.039-30.142-7.481-10.473-.827-11.392-.583-7.779,2.059,2.254,1.648,3.172,2.965,2.041,2.927-3.4-.115-9.748-5.72-8.217-7.251C179.323.64,178.266,0,176.192,0s-3.316.738-2.759,1.639m31.511,6.42A23.884,23.884,0,0,1,196.2,8.1c-2.719-.523-1.009-.97,3.8-.994s7.033.4,4.944.95M172.678,9.667c0,.507-3.689,2.125-8.2,3.6s-8.689,3.32-9.29,4.113C153.5,19.606,135.1,28.723,134.167,27.792c-.455-.455,1.63-2.143,4.634-3.75s5.461-4.068,5.461-5.468a2.908,2.908,0,0,1,2.733-2.75c1.5-.112,6.666-1.709,11.475-3.547,8.746-3.343,14.208-4.347,14.208-2.61m3.985,8.9c-6.856,2.521-12.4,2.851-17.1,1.018-2.094-.816,12.068-3.764,18.579-3.868s6.5-.084-1.479,2.85m-36.772.513c-1.8.684-7.533,4.147-12.732,7.695S116.55,33.4,115.137,33.612a17.011,17.011,0,0,0-5.3,2.1c-1.56.974-2.732.682-2.732-.682,0-4.193,24.315-16.88,32.787-17.108,2.914-.079,2.914.05,0,1.156M198,21.824c-4.706.907-11.1.878-14.208-.064-4.028-1.22-1.571-1.694,8.558-1.649,12.584.057,13.23.252,5.65,1.713m50.929,5.6c12.817,5.868,20.911,12.226,24.832,19.508,1.421,2.638-1.837.919-8.4-4.43-5.9-4.807-12.251-9.907-14.123-11.333-4.917-3.744-28.915-9.631-30.353-7.446-1.66,2.524-20.125,4.807-18.574,2.3.673-1.088,3.074-1.978,5.336-1.978s4.685-.925,5.384-2.056c2.207-3.57,23.147-.4,35.9,5.438M160.546,25.8c-7.782,6.6-19.335,13.7-13.43,8.262,3.542-3.263,4.927-5.76,3.279-5.909-1.57-.143.1-1.01,3.7-1.927s7-1.785,7.541-1.928.05.534-1.093,1.5m33.99,2.611A41.575,41.575,0,0,1,184.7,30.23l-4.371.064,4.371-1.879a28.962,28.962,0,0,1,9.837-1.814l5.464.064-5.464,1.75m-19.673,5.562c-3.005,1.771-8.483,4.563-12.174,6.2-16.869,7.5-24.442,13.931-23.756,20.174.67,6.107-4.9,19.759-7.15,17.513-.675-.675.5-3.87,2.619-7.1,3.4-5.194,3.437-5.714.3-4.508-4.583,1.759-4.505-.287.228-5.979,2.078-2.5.111-1.154-4.372,2.989s-8.15,6.872-8.15,6.064c0-2.767,8.029-14.675,9.144-13.56.612.612,4.953-1.978,9.646-5.757s14.434-9.692,21.648-13.141c13.754-6.577,21.383-8.417,12.021-2.9m80.716,9.94c3.1,4.816,3.087,5.028-.136,2.493a9.235,9.235,0,0,0-7.625-1.433c-3.352,1.093-3.5.915-.834-.969,2.827-1.994,2.68-2.759-1.093-5.671-4.215-3.253-4.183-3.3.971-1.524a20.127,20.127,0,0,1,8.717,7.1m-68.285-.628c-7.514,7.843-7.465,10.063.138,6.336a129.626,129.626,0,0,1,15.847-5.9c5.41-1.625,10.77-3.767,11.912-4.76,3.2-2.778,19.582-2.139,23.784.927,3.131,2.285,1.8,2.611-8.126,2-12.759-.793-33.515,6.259-30.9,10.5.8,1.3-.036,1.674-2.02.913-4.281-1.643-30.134,23.99-40.493,40.148-4.046,6.311-8.175,11.475-9.174,11.475-2.51,0-2.283-5.125.368-8.306,1.549-1.859,1.463-2.028-.295-.58-1.593,1.312-4.33.832-7.65-1.344-4.826-3.162-5.17-3.1-5.17.871,0,5.993,2.294,7.589,6.356,4.422,3.09-2.409,3.139-2.278.436,1.165-1.674,2.133-3.59,3.331-4.258,2.663s-2.46,1.03-3.982,3.773-2.8,3.687-2.846,2.1c-.058-2.18-.916-2.05-3.5.53-1.879,1.88-2.854,4.329-2.166,5.443,1.69,2.734,13.539-3.34,15.259-7.823.746-1.946,1.966-2.929,2.71-2.185s.182,2.765-1.25,4.49c-3.7,4.453.353,6.223,7.778,3.4,8.153-3.1,14.811-10.477,14.9-16.506.038-2.674.73-5.523,1.537-6.33s1.188,1.087.845,4.21c-.526,4.79-.118,5.258,2.609,3,2.688-2.231,3.093-1.958,2.4,1.619-.455,2.366-2.29,4.3-4.077,4.3a3.16,3.16,0,0,0-3.249,3.043c0,4.749-9.789,10.78-22.836,14.068-6.617,1.668-10.5,3.555-8.744,4.248q3.162,1.245-1.485,1.419c-4.783.178-11.133,5.883-8.963,8.053.669.67,3.268.119,5.776-1.222,4.562-2.442,6.742.477,2.373,3.178-3.219,1.989-2.665,7.7.624,6.435,1.688-.648,2.81.6,2.81,3.117,0,3.18-1.211,3.977-5.005,3.289-2.753-.5-7.46.7-10.46,2.667-4.323,2.832-5.458,2.955-5.467.59-.006-1.641-2.477-.032-5.491,3.574l-5.48,6.558,1.438-6.337c.809-3.562.581-5.808-.52-5.128-1.076.665-2.109-1.306-2.294-4.381s.307-4.7,1.093-3.615c6.242,8.624,15.61.248,10.424-9.32-1.845-3.406-3.395-4.9-3.443-3.331s-.924,2.344-1.947,1.712c-1.991-1.23-15.355,7.844-18.105,12.294-3.535,5.72-4.731-.966-1.232-6.889,6.458-10.932,4-12.39-2.8-1.663-6.171,9.73-13.692,15.05-9.071,6.416,4.232-7.909,10.453-27.948,9.531-30.705-.526-1.572.5-4.523,2.277-6.557s4.31-7.141,5.625-11.349,3.413-10.6,4.662-14.208l2.271-6.557-1.172,7.65c-.645,4.208-1.718,11.585-2.385,16.394l-1.212,8.743,5.642-11.693c6.385-13.233,7.109-16.219,2.433-10.036-1.765,2.333-3.241,3.036-3.279,1.561s2.33-4.254,5.263-6.176,4.833-4.8,4.223-6.387a3.678,3.678,0,0,1,1.2-4.32c1.406-.869,1.8-.1,1.008,1.965-.716,1.865-.212,3.392,1.118,3.392a2.319,2.319,0,0,0,2.42-2.186c0-1.2,1.44-2.186,3.2-2.186,2.46,0,1.762,2.908-3.016,12.569-6.67,13.486-10,23.338-12.021,35.519-.941,5.683-.746,6.526.76,3.278a30.454,30.454,0,0,0,2.214-9.836c.149-4.352.618-4.8,2.306-2.185,1.62,2.508,2.126,1.694,2.152-3.461.018-3.707.688-7.394,1.487-8.193s1.705-3.81,2.012-6.69c.667-6.26,10.964-23.186,14.1-23.186,1.243,0,.751,2.831-1.12,6.448-4.228,8.176-4.193,9.649.187,7.968,2.709-1.039,3.149-.463,1.9,2.5a47.6,47.6,0,0,0-2.439,9.314c-.7,4.625-.437,4.457,1.685-1.093,6.93-18.123,22.323-30.639,18.385-14.949-1.249,4.977-.878,4.849,5.474-1.878,7.063-7.481,6.648-5.062-.914,5.325-2.4,3.291-3.829,6.512-3.184,7.156,1.718,1.719,21.468-20.58,21.468-24.238,0-1.71,1.041-3.11,2.315-3.11s1.6,1.162.718,2.583,2.015-.172,6.429-3.539c9.378-7.153,9.21-6.85,3.813-6.85-2.316,0-3.64.925-2.941,2.055.737,1.193.07,1.313-1.591.287-1.721-1.064-2.329-.908-1.527.391.734,1.187-.1,2.159-1.848,2.159s-3.182-.35-3.182-.778c0-1.352,17.986-20.352,19.266-20.352.673,0-1.419,2.759-4.65,6.131m-79.522-.12a60.033,60.033,0,0,1-5.942,10.352c-6.611,9.457-10.143,16.653-9.047,18.428.527.851-.84,4.287-3.037,7.636-2.767,4.219-4.354,5.184-5.167,3.142-.68-1.707-1.246-.954-1.346,1.794C83,90.774,80.852,96.175,78.587,96.175c-1,0-.31-4.427,1.533-9.838s4.132-9.356,5.084-8.767,3.073-.64,4.712-2.731c2.7-3.439,2.617-3.516-.845-.8-4.682,3.672-5.156-.267-.5-4.134a6.668,6.668,0,0,0,2.065-6.742c-.865-2.725,1.619-7.108,7.879-13.9,10.084-10.94,11.289-11.734,9.254-6.094m30.4.956c-1.965,1.966-13.58,4.222-13.58,2.639,0-.4,2.7-2.138,6-3.868,6.228-3.263,11.254-2.448,7.577,1.229M273.224,62.531a4.008,4.008,0,0,0,2.579,3.538c3.023,1.008.819,8.248-2.51,8.248-1.24,0-2.255-3.016-2.255-6.7a31.648,31.648,0,0,0-2.306-11.476c-2.228-4.612-2.191-4.63,1.093-.531,1.869,2.334,3.4,5.448,3.4,6.922M281,62.295c1.068,4.578.831,5.9-.784,4.372-1.272-1.2-3-5.137-3.843-8.744-1.068-4.577-.831-5.9.784-4.371,1.272,1.2,3,5.137,3.843,8.743m-28.627,1.228c-.57.923.2,2.176,1.71,2.784s-.08,1.185-3.533,1.28c-5.609.154-5.958-.216-3.279-3.469,2.714-3.294,2.375-3.5-3.557-2.152l-6.558,1.489,5.37-4.575c5.3-4.516,13.205-.789,9.847,4.643M250.461,74.6c-6.858,1.85-12.2.227-7.93-2.41,1.408-.87,5.2-1.071,8.43-.446l5.87,1.137-6.37,1.719M81.23,74.981a42.123,42.123,0,0,0-4.689,8.2c-2.187,5.029-2.246,4.959-1.008-1.189.724-3.594,2.468-7.268,3.875-8.163,3.829-2.436,4.467-2.031,1.822,1.155m37.995,18.787c-2.8,6.217-3.244,9.591-1.631,12.475,1.884,3.366,2.585,2.569,4.725-5.38,1.382-5.133,3.056-10.747,3.719-12.475,2.771-7.222-3.287-2.438-6.813,5.38M76.273,107.532c-1.16,2.169-2.6,3.943-3.2,3.943s-.207-1.721.875-3.825a11.3,11.3,0,0,0,1-7.1c-.829-2.819-.655-2.835,1.236-.117,1.43,2.055,1.461,4.54.089,7.1m5.032,12.07a96.546,96.546,0,0,0-3.751,13.2c-.774,3.918-2.176,6.648-3.116,6.067s.23-7.041,2.6-14.356,4.826-12.782,5.459-12.148.1,3.888-1.191,7.233m86.728-4.848a38.165,38.165,0,0,0-.547,3.825,3,3,0,0,1-2.823,2.732,6.89,6.89,0,0,0-4.372,1.954c-1.06,1.137,1.147,1.388,5.283.6,4.621-.88,7.1-.489,7.1,1.118,0,1.358,1.973.684,4.385-1.5,4.995-4.52,4.035-7.534-1.054-3.31-2.807,2.329-3.331,2.034-3.331-1.875,0-3.929-3.82-6.845-4.645-3.546m1.366,30.694c-4.972,4.2-5.564,5.384-2.447,4.907,2.261-.345,5.577-2.841,7.37-5.546,4.19-6.32,3.163-6.187-4.923.639M72.511,162.243c-3.792,3.792-4.765,1.257-3.173-8.259l1.444-8.629,2.111,7.2c1.479,5.044,1.364,7.944-.382,9.69M94.452,157.7c-.856,8.911-.485,10.881,1.785,9.477,2.167-1.339,2.435-.75,1.1,2.413a34.391,34.391,0,0,0-1.728,11.055c.06,10.188-5.631,7.982-12.566-4.871-4.471-8.285-5.483-12.495-4.421-18.394L80,149.727l1.706,7.1c.938,3.907,2.611,7.1,3.718,7.1s2.027,3.689,2.045,8.2.81,9.42,1.76,10.915,1.44-2.932,1.092-9.837c-.524-10.381,2.3-26.761,4.614-26.761.331,0,.116,5.062-.479,11.249m48.45-5.728c-3.643,3.377-5.173,6.305-3.938,7.538s3.939-.913,6.958-5.521c5.869-8.959,5.056-9.5-3.02-2.017m144.034,4.148c-3.681,3.1-7.78,5.632-9.109,5.632-2.925,0-3.151,10.755-.321,15.23,1.7,2.685,2.763,2.363,6.524-1.974,5.48-6.318,5.563-6.958.669-5.144-2.856,1.059,6.574-7.941,12.223-11.664.41-.271-.163-2.116-1.274-4.1-1.8-3.223-2.735-3.007-8.712,2.022m-31.71-1.871c-.682.682-6.5,1.723-12.933,2.314s-12.02,2-12.421,3.131-2.555,2.058-4.789,2.058-4.771,1.15-5.64,2.557c-1.114,1.8-.344,2.053,2.6.851,5.807-2.367,22.763-4.284,22.763-2.572,0,3.637-25.1,12.3-32.589,11.244l-7.848-1.1,7.65,2.383c5.489,1.71,9.508,1.716,14.229.023a21.479,21.479,0,0,1,13.114-.41c6.039,1.8,3.989,3.407-3.08,2.413-2.176-.306-1.911.719.917,3.547s4.238,3.192,4.881,1.264c.5-1.492,1.84-2.713,2.985-2.713,4.421,0-2.79,8.657-11.1,13.329-4.759,2.674-8.142,5.687-7.519,6.7s.256,1.833-.817,1.833-1.951,1.391-1.951,3.09c0,2.592.824,2.551,5.1-.251,3.513-2.3,5.1-2.535,5.1-.749,0,3.842,5.639-2.313,7.5-8.19a23.969,23.969,0,0,1,4.9-8.182c2.741-2.741,2.96-5.033,1.159-12.13-1.952-7.69-1.823-8.419,1.069-6.019,4.672,3.877,8.911,4.092,10.281.521a5.2,5.2,0,0,1,4.522-3.063c1.841,0,3.348-.953,3.348-2.117s1.721-1.524,3.825-.8c3.107,1.071,3,.661-.547-2.185-2.4-1.926-6.151-3.534-8.325-3.572s-3.347-1.054-2.6-2.256c1.423-2.3-1.664-3.071-3.79-.945M148.751,164.274c-4.41,3.575-4.793,4.687-2.186,6.336,1.739,1.1,2.053,2.016.7,2.034s-3.689-1.442-5.185-3.245-3.737-3.279-4.978-3.279-.477,1.967,1.7,4.372,5.172,4.371,6.659,4.371,3.3,2.394,4.038,5.319,3.3,5.943,5.7,6.7,4.367,2.3,4.367,3.424,1.364,2.039,3.03,2.039c3.513,0,5.412,9.62,3.458,17.514l-1.345,5.437-1.62-4.9c-.891-2.694-1.019-5.87-.284-7.059,1.689-2.734-2.174-10.117-6.079-11.615-2.325-.893-2.8,1.515-2.222,11.218.407,6.795,1.657,12.664,2.778,13.042s1.435,2.261.7,4.184q-1.336,3.483,1.215,1.915c1.535-.948,2.558-.217,2.558,1.828a3.354,3.354,0,0,0,3.278,3.407c5.318,0,6.433.489,8.938,3.915,2.078,2.842,2.562,2.786,3.8-.443.78-2.034.682-3.243-.22-2.686s-3.377-.259-5.5-1.814c-3.287-2.4-3.376-3.014-.593-4.082,1.8-.691,3.855-.315,4.565.834,2.28,3.689,5.406,2.235,5.406-2.515,0-2.809-1.076-4.192-2.758-3.547-1.927.74-2.651-1.209-2.4-6.474.251-5.335-.465-7.218-2.454-6.454q-2.812,1.078-4.18-7.5c-.883-5.523-2.53-8.578-4.625-8.578-1.789,0-3.252-1.042-3.252-2.315s-1-1.7-2.212-.948c-2.057,1.272-5.919-10.86-4.753-14.932.283-.991-.492-1.179-1.724-.418-3.085,1.907-2.827-1.784.346-4.957,4.534-4.534.9-4.638-4.655-.134m-40.35,9.9c-3.118,3.363-5.63,8.091-5.583,10.508.064,3.3.822,2.7,3.035-2.383,3.006-6.9,8.914-10.947,11.019-7.54.641,1.036,3.131,1.371,5.535.742,5.692-1.489,5.529,1.033-.516,7.97-2.687,3.083-3.474,4.376-1.749,2.873,5.293-4.611,8.414-3.168,7.941,3.671-.384,5.545.085,6.12,3.5,4.294,2.8-1.5,3.867-4.463,3.687-10.228-.148-4.733-.711-6.316-1.35-3.8-.927,3.658-1.645,3.155-4.671-3.279-4.8-10.21-12.973-11.319-20.844-2.832m27.118,28.949c0,1.114-1.721,2.476-3.825,3.026-2.376.621-1.57,1.1,2.13,1.253,4.311.183,6.92,2.12,9.45,7.014,1.923,3.718,3.987,6.27,4.586,5.671,1.149-1.149-9.445-18.989-11.275-18.989-.586,0-1.066.911-1.066,2.025m107.33,12.259c-7.082,8.066-9.468,14.708-3.505,9.76,1.8-1.5,3.279-3.767,3.279-5.045s2.139-4.6,4.753-7.383,4.191-5.059,3.5-5.059-4.3,3.477-8.032,7.727m4.917,3.927a28.834,28.834,0,0,1,1.414,4.944c0,.517,4.181.37,9.29-.328,8.021-1.1,8.8-.864,5.694,1.687-4.148,3.408.139,12.177,4.6,9.418,1.316-.813,4.4.809,6.855,3.606l4.463,5.085-1.278-5.978c-1.193-5.574,5.321-16.269,8.172-13.418.552.553,1.55-.416,2.216-2.152,1.234-3.216-1.951-3.623-6.431-.821-1.365.853-5.609.461-9.431-.871a34.466,34.466,0,0,0-14.2-1.246c-4.138.671-8.439.08-10.016-1.376-2.174-2.007-2.463-1.7-1.351,1.45M108.2,225.137c-.743,1.2-.035,2.185,1.574,2.185s4.327,1.946,6.041,4.323c2.207,3.062,3.584,3.566,4.721,1.727,1.178-1.907,2.7-1.6,5.735,1.141,2.272,2.056,5.13,3.738,6.352,3.738,3.93,0,9.969,8.322,8.227,11.338-.911,1.579-.859,2.148.116,1.265,2.278-2.061,7.511,4.772,7.6,9.925.069,3.882,12.385,16.817,16.014,16.817,2.8,0,8.806,6.58,7.344,8.041-.7.7.165,3.333,1.926,5.847s3.2,6.319,3.2,8.456.946,3.885,2.1,3.885,3.161,3.935,4.456,8.743c2.115,7.855,4.138,9.816,9.289,9,.9-.142,1.655,1.463,1.673,3.567.029,3.269.342,3.348,2.152.546,1.867-2.889,2.123-2.876,2.153.111.054,5.519,5.28,15.154,8.23,15.173a2.531,2.531,0,0,1,2.732,2.2c0,5.65-8.442.7-27.056-15.877-11.159-9.935-28.056-23.951-37.549-31.148-60.924-46.184-64.766-49.993-59.9-59.4,3.428-6.627,3.885-6.822,9.359-3.982,5.722,2.969,5.736,2.956,2.391-2.149-3.417-5.215-1.15-6.47,4.88-2.7,1.377.861,3.067.1,3.756-1.7s1.834-3.266,2.544-3.266.683.983-.06,2.186m88.553,2.239c5.178,9.674.291,11.1-8.108,2.359l-5.035-5.237v7.295c0,6.883.181,7.055,3.209,3.051,4.343-5.743,4.282-.368-.092,8.091-1.892,3.658-2.836,7.255-2.1,7.992s1.914-.85,2.614-3.528c1.4-5.334,7.3-2.793,7.3,3.142,0,1.656,1.041,3.011,2.314,3.011s1.833.779,1.244,1.732,2.058,1.957,5.882,2.232c8.308.6,13.57,6.222,9.927,10.611-1.844,2.221-1.576,2.911,1.13,2.911,2.347,0,3.546-1.891,3.546-5.593,0-3.077.861-5.062,1.913-4.412s2.56-2.865,3.351-7.813c1.486-9.289,3.8-9.925,4.756-1.306.3,2.7.627,5.549.727,6.322s1.8,2.025,3.77,2.782c2.675,1.027,3.035.669,1.415-1.4-1.443-1.847-1.424-5.354.058-10.433l2.231-7.65,1.56,6.557c1.518,6.383,1.567,6.4,1.819.815.26-5.793-4.383-11.838-7.047-9.174-.791.791-1.438,0-1.438-1.768a9.671,9.671,0,0,1,2.623-5.829c1.443-1.442,1.837-2.623.877-2.623s-4.519,2.705-7.909,6.011c-14.058,13.713-15.263,14.6-15.263,11.2a9.279,9.279,0,0,1,2.432-5.656c2.654-2.654.592-7.961-2.379-6.125-1.007.622-1.35-.71-.761-2.961.8-3.057-.495-4.526-5.122-5.809-11.429-3.169-11.761-3.127-9.442,1.206m68.226,32.381c-2.128,1.351-1.748,2.7,1.612,5.745l4.395,3.978-4.678,4.058c-5.946,5.156-6.821,5.1-5.1-.325.924-2.912.24-4.823-2.039-5.7-6.134-2.354-4.179-9.6,2.582-9.558,3.9.022,5.035.653,3.227,1.8m-39.839,8.367c0,2.408,1.457,4.371,3.244,4.371,2.607,0,2.729-.678.618-3.46-1.444-1.9-2.9-3.871-3.244-4.372s-.618,1.056-.618,3.461m-47.282,7.938c.759-.76,1.38.259,1.38,2.262,0,4.245-4.525,4.8-8.306,1.02-4.018-4.018-3.117-6.538,1.461-4.088,2.247,1.2,4.706,1.565,5.465.806m28.7,5.83c-4.184,1.545-4.154,1.683.712,3.23,5.583,1.775,8.916.054,5.7-2.943-1.122-1.046-4.007-1.175-6.412-.287M220.6,317.471l-4.741,4.933,2.825-5.464c1.554-3.006,2.659-5.71,2.455-6.011a9.7,9.7,0,0,1-.3-3.279c.038-1.523,1.049-1.046,2.286,1.077,1.7,2.924,1.117,4.957-2.522,8.744m29.7-7.053a2.414,2.414,0,0,0,3.179,1.106c1.648-1.019,4.449,3.588,4.449,7.315,0,3.282-8.383,1.971-9.622-1.5-.72-2.02-1.882-4.9-2.583-6.405-1.517-3.254,2.6-3.713,4.577-.511M266.633,321c-.07,2.934-3.389,5.788-7.07,6.081-4.67.37-5.075-3.24-.559-4.973,1.8-.69,2.729-2.123,2.072-3.185s.333-1.346,2.2-.63,3.378,1.934,3.359,2.707M235.29,332.356c.692,5.154.6,5.194-2.532,1.106-3.885-5.072-4.219-8.466-.718-7.3,1.393.464,2.855,3.251,3.25,6.193m27.168,12.453c.089.9.552,3.7,1.028,6.227a10.337,10.337,0,0,1-1.8,7.676c-1.468,1.7-2.457,2.7-2.2,2.229s-.9-2.82-2.582-5.215c-2.387-3.408-2.493-5.248-.49-8.456,2.6-4.163,5.748-5.445,6.044-2.461M236.066,357.8c0,1.573-.879,2.861-1.952,2.861-2.307,0-4.634-5.419-4.536-10.562.087-4.58,6.488,3.017,6.488,7.7m56.308,27.931c-.568,2.969-.309,4.952.574,4.406,2.35-1.453,4.211-9.8,2.184-9.8-.949,0-2.191,2.429-2.758,5.4" fill-rule="evenodd"/>
    </g>
    <text id="O_INDIVÍDUO" data-name="O INDIVÍDUO" transform="translate(76 651)" font-size="160" font-family="MicrosoftUighur-Bold, Microsoft Uighur" font-weight="700"><tspan x="0" y="0">O INDIVÍDUO</tspan></text>
  </g>
</svg>
