<?xml version="1.0" standalone="no"?>
<!DOCTYPE svg PUBLIC "-//W3C//DTD SVG 20010904//EN"
 "http://www.w3.org/TR/2001/REC-SVG-20010904/DTD/svg10.dtd">
<svg version="1.0" xmlns="http://www.w3.org/2000/svg"
 width="512.000000pt" height="512.000000pt" viewBox="0 0 512.000000 512.000000"
 preserveAspectRatio="xMidYMid meet">

<g transform="translate(0.000000,512.000000) scale(0.100000,-0.100000)"
fill="#000000" stroke="none">
<path d="M2435 5064 c-539 -32 -1025 -217 -1450 -553 -90 -71 -305 -286 -376
-376 -301 -382 -481 -811 -540 -1290 -6 -55 -12 -185 -12 -290 0 -207 17 -364
59 -553 129 -575 511 -1145 999 -1488 753 -530 1731 -608 2545 -203 765 381
1269 1084 1387 1934 19 135 21 460 4 600 -59 479 -239 908 -540 1290 -71 90
-286 305 -376 376 -380 300 -826 487 -1285 538 -102 12 -331 20 -415 15z m428
-340 c663 -96 1234 -477 1577 -1052 200 -334 301 -703 303 -1102 1 -332 -56
-607 -185 -893 -27 -62 -51 -113 -52 -114 -1 -2 -54 23 -117 55 -116 59 -253
108 -389 139 -56 12 -121 17 -255 17 -169 -1 -187 -3 -295 -31 -118 -32 -290
-100 -386 -154 l-54 -31 -77 71 c-247 226 -547 376 -876 438 -145 27 -448 25
-595 -5 -294 -59 -578 -195 -797 -381 -32 -28 -62 -51 -66 -51 -18 0 -118 267
-159 426 -61 234 -81 543 -51 774 146 1123 1118 1953 2241 1913 74 -3 179 -11
233 -19z m-808 -2994 c281 -63 499 -183 695 -379 234 -235 365 -509 404 -843
l6 -48 -53 -14 c-60 -17 -176 -40 -292 -57 -119 -18 -417 -15 -555 5 -593 88
-1107 394 -1458 867 l-46 62 74 70 c210 194 495 324 790 361 85 10 347 -4 435
-24z m1947 -303 c88 -23 239 -86 296 -123 l22 -15 -61 -80 c-134 -176 -335
-362 -520 -482 -105 -68 -257 -149 -268 -142 -5 2 -11 28 -15 57 -23 171 -109
411 -209 580 -33 56 -42 79 -34 86 53 43 261 122 371 142 94 17 310 5 418 -23z"/>
<path d="M1551 4035 c-162 -42 -288 -112 -405 -224 -350 -337 -376 -878 -59
-1249 108 -126 288 -237 463 -284 117 -31 328 -31 442 0 340 93 580 340 664
687 26 106 23 296 -5 405 -72 274 -266 504 -517 616 -174 77 -399 96 -583 49z
m369 -300 c192 -51 356 -211 413 -402 72 -242 -23 -505 -233 -648 -109 -74
-197 -100 -335 -99 -87 0 -123 5 -175 23 -245 86 -404 304 -403 556 0 161 50
288 156 401 73 79 140 122 242 156 66 23 98 28 180 28 56 0 124 -7 155 -15z"/>
<path d="M3652 3439 c-90 -10 -222 -55 -299 -100 -81 -48 -212 -180 -261 -264
-22 -38 -53 -106 -69 -150 -25 -74 -27 -91 -27 -235 0 -144 2 -161 27 -235 41
-118 99 -209 191 -300 118 -117 238 -181 392 -211 403 -77 793 189 881 599 18
87 13 252 -12 342 -97 358 -452 597 -823 554z m223 -336 c73 -23 126 -57 184
-118 131 -138 157 -336 69 -509 -29 -56 -109 -138 -166 -169 -227 -123 -505
-34 -613 196 -32 69 -34 77 -34 187 0 108 2 119 31 180 96 202 316 299 529
233z"/>
</g>
</svg>
