<svg id="share-whatsapp" xmlns="http://www.w3.org/2000/svg" viewBox="0 0 20 20">
  <defs>
    <style>
      .cls-1 {
        fill: #fff;
      }
    </style>
  </defs>
  <path id="WhatsApp" class="cls-1" d="M20,9.742a9.835,9.835,0,0,1-14.564,8.53L0,20l1.772-5.227A9.64,9.64,0,0,1,.363,9.742,9.819,9.819,0,0,1,20,9.742ZM10.182,1.552A8.232,8.232,0,0,0,1.927,9.742a8.1,8.1,0,0,0,1.572,4.8L2.468,17.587,5.64,16.578a8.263,8.263,0,0,0,12.8-6.836A8.233,8.233,0,0,0,10.182,1.552ZM15.14,11.986c-.061-.1-.221-.159-.461-.279s-1.424-.7-1.644-.777-.382-.12-.542.119-.622.777-.762.936-.281.18-.522.06a6.587,6.587,0,0,1-1.935-1.185A7.2,7.2,0,0,1,7.934,9.208c-.14-.239-.015-.368.106-.487s.241-.279.361-.418a1.6,1.6,0,0,0,.24-.4.435.435,0,0,0-.02-.418c-.06-.119-.542-1.294-.742-1.773s-.4-.4-.541-.4-.3-.02-.461-.02a.888.888,0,0,0-.642.3,2.67,2.67,0,0,0-.842,1.992,4.621,4.621,0,0,0,.983,2.47,9.838,9.838,0,0,0,4.111,3.605c2.447.956,2.447.637,2.888.6A2.434,2.434,0,0,0,15,13.122,1.991,1.991,0,0,0,15.14,11.986Z"></path>
</svg>